PathFileType	4	(X/Y/Z)	C:/Users/beibeiliu/ov580/test_trc/User2\sequence.26_training_dense_right.trc
DataRate	CameraRate	NumFrames	NumMarkers	Units	OrigDataRate	OrigDataStartFrame	OrigNumFrames
120	120	8	19	mm	120	28	109
Frame#	Time	ThumbCMC			ThumbMCP			ThumbIP			ThumbTip			IndexMCP			IndexPIP			IndexTip			MiddleMCP			MiddlePIP			MiddleTip			RingMCP			RingPIP			RingTip			PinkyMCP			PinkyPIP			PinkyTip			BackHand1			BackHand2			BackHand3	
		X0	Y0	Z0	X1	Y1	Z1	X2	Y2	Z2	X3	Y3	Z3	X4	Y4	Z4	X5	Y5	Z5	X6	Y6	Z6	X7	Y7	Z7	X8	Y8	Z8	X9	Y9	Z9	X10	Y10	Z10	X11	Y11	Z11	X12	Y12	Z12	X13	Y13	Z13	X14	Y14	Z14	X15	Y15	Z15	X16	Y16	Z16	X17	Y17	Z17	X18	Y18	Z18	
27	0.225	160.363	25.2946	-52.4281	162.79	40.1515	-77.8691	168.569	52.3735	-112.856	169.641	64.8106	-132.129	118.135	8.26277	-126.765	98.1903	32.3179	-129.3	104.306	45.9982	-94.0505	97.9662	-1.5855	-121.569	77.134	28.3781	-114.076	98.4014	36.6151	-78.9287	80.1741	-13.3447	-110.968	67.9642	17.9243	-112.372	81.2274	27.8088	-78.6189	72.8227	-35.9059	-88.6603	55.1179	-40.2956	-105.418	43.6752	-44.8756	-130.994	114.756	-32.9944	-62.5705	130.142	-31.923	-27.6251	148.995	-15.0545	-58.5891	
28	0.233333	154.788	28.1817	-56.305	156.593	43.3842	-83.1566	158.019	57.2418	-110.507	157.88	69.9605	-133.589	119.915	7.19924	-131.419	95.2483	25.6075	-130.767	99.8813	36.8526	-93.1312	101.426	-8.97172	-124.783	77.8511	16.2965	-118.902	91.4788	27.7881	-80.6915	85.8371	-22.5064	-116.417	65.9478	1.23292	-113.995	78.8062	16.0131	-83.8696	83.8399	-48.6498	-92.3181	68.8387	-57.1363	-110.914	57.4369	-68.0201	-126.268	126.869	-36.202	-63.3679	136.558	-33.8682	-29.5402	155.205	-10.1967	-61.6717	
29	0.241667	150.984	26.2928	-55.3948	150.573	42.68	-81.8681	152.338	56.9974	-115.846	147.398	63.3091	-139.786	117.328	-1.9538	-131.232	92.3633	12.6738	-131.012	92.9747	23.9688	-96.7203	102.852	-19.5642	-126.063	75.752	2.13311	-116.701	90.24	18.6579	-82.2674	92.5235	-35.8953	-115.327	68.555	-12.5381	-115.023	79.9948	4.99417	-84.9715	94.5093	-59.5611	-92.453	79.6427	-72.7919	-111.91	71.4704	-85.5338	-125.862	132.952	-41.9488	-65.6822	142.711	-38.2288	-30.933	157.994	-8.82568	-59.2311	
30	0.25	147.279	27.4882	-57.8898	144.887	42.05	-84.1619	140.992	53.0123	-114.405	135.48	59.4362	-136.658	124.755	-3.09315	-131.839	92.8801	0.52334	-129.851	90.3784	11.6829	-97.6553	111.206	-26.4241	-125.74	78.5502	-11.0253	-117.806	88.1385	3.28709	-82.0558	102.384	-45.2119	-118.615	76.0492	-27.2215	-117.769	82.2516	-11.5174	-82.6311	111.868	-67.2059	-96.768	102.145	-79.8001	-118.028	97.4483	-93.9481	-133.276	142.744	-43.8347	-64.9882	150.629	-36.401	-34.4137	161.175	-7.5671	-59.0393	
31	0.258333	134.649	27.651	-52.2778	127.364	40.6858	-82.599	121.365	50.3862	-111.444	114.171	57.8061	-135.755	132.078	-5.27887	-128.459	97.7979	-9.47316	-131.358	92.3004	-4.62658	-95.9791	125.91	-29.9441	-128.274	90.5837	-30.0171	-120.923	91.5539	-11.0727	-82.7014	124.186	-48.4377	-122.129	93.2681	-45.4794	-118.947	91.2068	-27.4771	-89.5573	144.168	-68.7121	-99.0248	142.238	-79.311	-123.2	142.149	-89.8352	-146.777	159.801	-35.5569	-66.8884	165.699	-27.5725	-32.4111	162.249	-0.858781	-56.4333	
32	0.266667	112.943	23.2066	-43.8475	101.46	32.4141	-75.8974	92.0137	43.5961	-105.809	83.8501	46.4092	-128.667	134.737	5.47448	-124.788	104.802	-14.0925	-132.994	95.5125	-17.0769	-101.979	142.768	-17.1926	-125.321	108.713	-34.704	-126.144	102.394	-29.7649	-86.096	150.863	-37.1832	-122.645	121.717	-49.3356	-126.405	110.741	-42.1624	-90.7512	175.559	-45.3943	-98.6283	185.52	-56.4979	-123.389	189.25	-61.112	-152.386	172.683	-18.7778	-62.0732	170.571	-17.9249	-30.3255	154.775	12.1898	-52.4776	
33	0.275	97.6145	12.382	-41.4926	80.5151	18.9171	-66.2655	66.6207	28.1075	-96.2319	57.7002	34.1788	-121.609	123.751	17.6575	-123.918	110.962	-9.16162	-135.387	102.346	-24.5025	-104.031	146.076	-1.38339	-121.14	122.24	-29.6166	-129.698	108.516	-34.1114	-92.831	160.498	-16.3033	-123.603	140.616	-38.1034	-130.135	125.543	-42.8667	-98.8099	187.282	-16.0443	-96.2842	201.184	-17.9273	-117.867	215.487	-17.1611	-143.083	168.384	4.0202	-56.8442	163.489	0.433764	-27.1102	134.701	22.2984	-42.4913	
34	0.283333	87.8283	12.9804	-40.033	67.1649	20.2116	-64.4599	55.3182	24.5172	-90.679	41.1312	30.863	-115.76	116.235	24.2022	-117.555	102.048	-4.28243	-133.209	96.5332	-22.3384	-105.831	131.849	12.4617	-122.649	119.321	-19.0238	-130.097	106.886	-30.3357	-91.1258	152.93	2.75257	-119.549	140.744	-22.0266	-131.085	120.243	-32.4779	-98.6143	179.734	0.952648	-93.548	195.127	2.17564	-114.436	207.368	9.79947	-134.219	157.852	12.5363	-52.368	152.279	8.23439	-20.6976	123.115	28.1959	-41.2883	
